<?xml version="1.0" standalone="no"?>
<!DOCTYPE svg PUBLIC "-//W3C//DTD SVG 20010904//EN"
 "http://www.w3.org/TR/2001/REC-SVG-20010904/DTD/svg10.dtd">
<svg version="1.0" xmlns="http://www.w3.org/2000/svg"
 width="1024.000000pt" height="1024.000000pt" viewBox="0 0 1024.000000 1024.000000"
 preserveAspectRatio="xMidYMid meet">
	<metadata>
		Created by potrace 1.16, written by Peter Selinger 2001-2019
	</metadata>
	<g transform="translate(0.000000,1024.000000) scale(0.100000,-0.100000)"
	fill="#FFFFFF" stroke="none">
		<path d="M2590 7438 c-44 -30 -96 -126 -117 -218 -16 -65 -18 -124 -17 -435 1
-796 69 -1069 387 -1545 207 -310 384 -480 561 -538 82 -27 254 -48 318 -38
177 27 334 306 298 531 -22 137 -76 207 -470 610 -241 247 -322 341 -431 504
-162 240 -224 409 -303 822 -43 222 -58 274 -87 305 -30 32 -93 33 -139 2z"/>
		<path d="M7493 7441 c-24 -23 -49 -112 -98 -351 -63 -308 -117 -475 -211 -648
-111 -204 -224 -342 -554 -677 -288 -292 -344 -359 -393 -462 -31 -66 -32 -72
-32 -198 1 -146 11 -184 72 -273 126 -185 407 -227 626 -95 209 126 445 428
632 808 139 281 206 497 236 755 16 138 16 604 0 750 -28 257 -64 349 -153
396 -39 20 -100 18 -125 -5z"/>
		<path d="M4910 5265 l0 -1275 190 0 190 0 0 1275 0 1275 -190 0 -190 0 0
-1275z"/>
		<path d="M4635 6202 c-50 -10 -334 -107 -443 -152 -181 -74 -322 -147 -322
-167 0 -21 56 -93 159 -208 109 -120 191 -244 220 -330 15 -48 24 -105 28
-180 8 -148 -12 -248 -75 -375 -39 -81 -60 -109 -142 -190 -68 -69 -115 -105
-165 -131 -118 -61 -167 -74 -285 -73 -164 1 -299 53 -513 196 -105 70 -174
108 -198 108 -12 0 -22 -15 -33 -47 -41 -129 -126 -520 -126 -585 0 -33 4 -38
33 -47 68 -23 358 -30 1120 -31 l777 0 -1 768 c-1 422 -5 920 -8 1107 -6 333
-6 340 -26 337z"/>
		<path d="M5572 6187 c-29 -35 -34 -181 -39 -1179 l-5 -1018 966 0 966 0 0 89
c0 140 -62 459 -110 569 -17 38 -22 42 -53 42 -22 0 -47 -10 -70 -27 -19 -16
-69 -54 -109 -85 -85 -66 -233 -139 -329 -162 -76 -19 -224 -21 -301 -5 -74
16 -201 77 -276 134 -121 92 -222 248 -258 400 -21 93 -14 282 14 373 26 81
80 187 130 254 40 54 144 157 242 240 30 26 53 48 50 51 -14 12 -204 119 -267
151 -108 54 -202 89 -363 136 -80 23 -152 44 -161 47 -8 2 -21 -2 -27 -10z"/>
		<path d="M2740 3245 l0 -505 2360 0 2360 0 0 505 0 505 -2360 0 -2360 0 0
-505z"/>
	</g>
</svg>
